# xmcd
#
# Track frame offsets:
#	150
#	17234
#	30021
#	50499
#	72181
#	87172
#	101872
#	121147
#	139279
#	152740
#	170651
#	189370
#	205528
#
# Disc length: 2921 seconds
#
# Revision: 1
# Processed by: cddbd v1.5.2PL0 Copyright (c) Steve Scherf et al.
# Submitted via: EasyCDDAExtractor 6.0.0.1
#
DISCID=a60b670d
DTITLE=Jorge Senno - Un blues desde el fin del mundo
DYEAR=2006
DGENRE=Blues
TTITLE0=La voz del lobo
TTITLE1=Sonidos de perfume
TTITLE2=Survival blues
TTITLE3=Algo trascendente
TTITLE4=A veces las cosas tardan en llegar
TTITLE5=Desafiante
TTITLE6=Cambios
TTITLE7=El viejo
TTITLE8=Texturas del fin del mundo
TTITLE9=Saliendo de Buenos Aires
TTITLE10=Todo el día me pregunto
TTITLE11=Acuarela del Docke
TTITLE12=Steel Guitar Rag
EXTD=
EXTT0=
EXTT1=
EXTT2=
EXTT3=
EXTT4=
EXTT5=
EXTT6=
EXTT7=
EXTT8=
EXTT9=
EXTT10=
EXTT11=
EXTT12=
PLAYORDER=
